<svg width="16" height="17" viewBox="0 0 16 17" fill="none" xmlns="http://www.w3.org/2000/svg">
<path fill-rule="evenodd" clip-rule="evenodd" d="M2 16.3794H14C15.104 16.3794 16 15.4834 16 14.3794V2.37939C16 1.27539 15.104 0.379395 14 0.379395H2C0.896 0.379395 0 1.27539 0 2.37939V14.3794C0 15.4834 0.896 16.3794 2 16.3794ZM11.98 6.60739C11.98 9.31539 9.916 12.4434 6.144 12.4434C4.988 12.4434 3.908 12.1034 3.004 11.5274C3.164 11.5474 3.328 11.5554 3.492 11.5554C4.452 11.5554 5.336 11.2274 6.04 10.6754C5.144 10.6594 4.384 10.0674 4.124 9.25139C4.248 9.27539 4.376 9.28739 4.508 9.28739C4.696 9.28739 4.876 9.26339 5.048 9.21539C4.112 9.02739 3.404 8.19539 3.404 7.20339V7.17539C3.68 7.32739 3.996 7.41939 4.332 7.43139C3.784 7.06339 3.42 6.43539 3.42 5.72339C3.42 5.34739 3.52 4.99539 3.696 4.69139C4.708 5.93139 6.22 6.75139 7.924 6.83539C7.892 6.68339 7.872 6.52739 7.872 6.36739C7.872 5.23539 8.792 4.31539 9.924 4.31539C10.512 4.31539 11.044 4.56339 11.42 4.96339C11.888 4.87139 12.328 4.70339 12.724 4.46739C12.568 4.94739 12.244 5.35139 11.82 5.60339C12.236 5.55139 12.632 5.44339 13 5.27939C12.724 5.69139 12.376 6.05539 11.976 6.34339C11.98 6.43137 11.98 6.51935 11.98 6.60733V6.60739Z" fill="white"/>
</svg>
